# Blender 3.4.1
# www.blender.org
mtllib smallPlatform.mtl
o Circle
v 0.000000 0.000000 -10.000000
v -1.950903 0.000000 -9.807853
v -3.826835 0.000000 -9.238795
v -5.555702 0.000000 -8.314696
v -7.071068 0.000000 -7.071068
v -8.314696 0.000000 -5.555702
v -9.238795 0.000000 -3.826835
v -9.807853 0.000000 -1.950903
v -10.000000 0.000000 0.000000
v -9.807853 0.000000 1.950903
v -9.238795 0.000000 3.826835
v -8.314696 0.000000 5.555702
v -7.071068 0.000000 7.071068
v -5.555702 0.000000 8.314696
v -3.826835 0.000000 9.238795
v -1.950903 0.000000 9.807853
v 0.000000 0.000000 10.000000
v 1.950903 0.000000 9.807853
v 3.826835 0.000000 9.238795
v 5.555702 0.000000 8.314696
v 7.071068 0.000000 7.071068
v 8.314696 0.000000 5.555702
v 9.238795 0.000000 3.826835
v 9.807853 0.000000 1.950903
v 10.000000 0.000000 0.000000
v 9.807853 0.000000 -1.950903
v 9.238795 0.000000 -3.826835
v 8.314696 0.000000 -5.555702
v 7.071068 0.000000 -7.071068
v 5.555702 0.000000 -8.314696
v 3.826835 0.000000 -9.238795
v 1.950903 0.000000 -9.807853
v -0.000000 0.000000 0.000000
vn -0.0000 1.0000 -0.0000
vt 0.998202 0.496588
vt 0.989295 0.593848
vt 0.961584 0.687501
vt 0.916136 0.773949
vt 0.854695 0.849869
vt 0.779623 0.912344
vt 0.693806 0.958973
vt 0.600541 0.987963
vt 0.503412 0.998202
vt 0.406152 0.989295
vt 0.312499 0.961584
vt 0.226051 0.916136
vt 0.150131 0.854695
vt 0.087656 0.779623
vt 0.041027 0.693806
vt 0.012037 0.600541
vt 0.001798 0.503412
vt 0.010705 0.406152
vt 0.038416 0.312499
vt 0.083864 0.226051
vt 0.145305 0.150131
vt 0.220377 0.087656
vt 0.306194 0.041027
vt 0.399459 0.012037
vt 0.496588 0.001798
vt 0.593848 0.010705
vt 0.687501 0.038416
vt 0.773949 0.083864
vt 0.849869 0.145305
vt 0.912344 0.220377
vt 0.958973 0.306194
vt 0.987963 0.399459
vt 0.500000 0.500000
s 0
usemtl smallPlatform
f 2/2/1 3/3/1 33/33/1
f 3/3/1 4/4/1 33/33/1
f 4/4/1 5/5/1 33/33/1
f 5/5/1 6/6/1 33/33/1
f 6/6/1 7/7/1 33/33/1
f 7/7/1 8/8/1 33/33/1
f 8/8/1 9/9/1 33/33/1
f 9/9/1 10/10/1 33/33/1
f 10/10/1 11/11/1 33/33/1
f 11/11/1 12/12/1 33/33/1
f 12/12/1 13/13/1 33/33/1
f 13/13/1 14/14/1 33/33/1
f 14/14/1 15/15/1 33/33/1
f 15/15/1 16/16/1 33/33/1
f 16/16/1 17/17/1 33/33/1
f 17/17/1 18/18/1 33/33/1
f 18/18/1 19/19/1 33/33/1
f 19/19/1 20/20/1 33/33/1
f 20/20/1 21/21/1 33/33/1
f 21/21/1 22/22/1 33/33/1
f 22/22/1 23/23/1 33/33/1
f 23/23/1 24/24/1 33/33/1
f 24/24/1 25/25/1 33/33/1
f 25/25/1 26/26/1 33/33/1
f 26/26/1 27/27/1 33/33/1
f 27/27/1 28/28/1 33/33/1
f 28/28/1 29/29/1 33/33/1
f 29/29/1 30/30/1 33/33/1
f 30/30/1 31/31/1 33/33/1
f 31/31/1 32/32/1 33/33/1
f 32/32/1 1/1/1 33/33/1
f 1/1/1 2/2/1 33/33/1
